# xmcd CD database file generated by Grip 2.96
# 
# Track frame offsets:
#       150
#       10132
#       17064
#       28377
#       37066
#       41848
#       48151
#       55867
#       67238
#       72197
#       78815
#       92883
#       99695
#       107515
#       121056
#       132156
# 
# Disc length: 1849 seconds
# 
# Revision: 0
# Processed by: cddbd v1.4PL0 Copyright (c) Steve Scherf et al.
# Submitted via: Grip 2.96
# 
DISCID=d7073710
DTITLE=Tradition Records - Solo Banjo
DYEAR=1900
DGENRE=
TTITLE0=The Kossoy Sisters - Bowling Green
TTITLE1=David Lindley - Clinch Mountain Backstep
TTITLE2=Hobart Smith - Cripple Creek
TTITLE3=Eric W. and Marshal B. - Feuding Banjos
TTITLE4=Roger McGuinn - Banjo Cantata
TTITLE5=Etta Baker - Goin' Down the Road Feelin' Bad
TTITLE6=Hobart Smith - Pateroller Song
TTITLE7=The Kossoy Sisters - I'll Fly Away
TTITLE8=Art Podell - Hindu Stomp
TTITLE9=Hobart Smith - Pretty Polly
TTITLE10=Bonnie Reid - Johnson Boys
TTITLE11=Hobart Smith - John Brown's Dream
TTITLE12=Edo Preswell - Amazing Grace
TTITLE13=Etta Baker - One Dime Blues
TTITLE14=The Kossoy Sisters - Poor Ellen Smith
TTITLE15=Jim Helms - Hooka Tooka
EXTD=
EXTT0=
EXTT1=
EXTT2=
EXTT3=
EXTT4=
EXTT5=
EXTT6=
EXTT7=
EXTT8=
EXTT9=
EXTT10=
EXTT11=
EXTT12=
EXTT13=
EXTT14=
EXTT15=
PLAYORDER=
